# Blender v2.76 (sub 0) OBJ File: ''
# www.blender.org
mtllib bananas.mtl
o 2
v -0.180373 -0.284846 -0.068049
v -0.129565 -0.273793 0.067532
v -0.150052 -0.037656 0.141960
v -0.066828 -0.285680 -0.158278
v -0.212437 -0.003510 -0.015295
v 0.014420 -0.267641 0.061126
v 0.053856 -0.274835 -0.078442
v 0.066384 0.008407 -0.027665
v 0.021333 -0.030334 0.134328
v -0.081456 0.311956 0.086267
v -0.199361 0.253855 0.163916
v -0.181736 0.403345 0.381431
v -0.078417 0.025196 -0.120645
v -0.143119 0.169333 0.277892
v 0.008811 0.175824 0.271131
v 0.002482 0.303927 0.444399
v -0.132329 0.298170 0.450436
v 0.047338 0.264394 0.152922
v -0.077451 0.474422 0.333007
v 0.036431 0.412667 0.371725
v -0.083444 -0.502395 -0.030478
v -0.070250 -0.491513 0.004781
v -0.052734 -0.507715 -0.054222
v -0.031412 -0.489853 0.003063
v -0.020601 -0.499706 -0.033239
v -0.090188 0.463700 0.679821
v -0.042407 0.431347 0.679180
v -0.077825 0.429837 0.680787
v -0.062588 0.486095 0.677692
v -0.033125 0.466135 0.677245
v 0.147563 -0.027256 -0.247333
v 0.157987 -0.057310 -0.105685
v 0.094883 0.145240 0.023744
v 0.281148 0.000795 -0.297431
v 0.074992 0.224494 -0.127995
v 0.298050 -0.047221 -0.067982
v 0.373763 -0.011532 -0.186671
v 0.344081 0.243253 -0.055526
v 0.261520 0.156640 0.068846
v 0.141461 0.496262 0.093107
v 0.013321 0.414971 0.112908
v -0.044328 0.492351 0.359932
v 0.229104 0.284663 -0.177376
v 0.044283 0.301113 0.208870
v 0.191839 0.311184 0.248481
v 0.125787 0.380190 0.441946
v -0.004989 0.371387 0.406635
v 0.251719 0.431541 0.176505
v 0.062451 0.576156 0.366032
v 0.167458 0.506957 0.416711
v 0.252037 -0.245077 -0.247485
v 0.253751 -0.244797 -0.208462
v 0.287982 -0.242467 -0.261889
v 0.291362 -0.242619 -0.198149
v 0.312763 -0.240729 -0.231414
v 0.016039 0.436258 0.696548
v -0.018662 0.433763 0.687260
v -0.004320 0.490567 0.690452
v 0.024978 0.470858 0.698641
v -0.540087 -0.327255 0.132983
v -0.450356 -0.309089 0.245530
v -0.421091 -0.066253 0.286232
v -0.458658 -0.372078 0.037287
v -0.522907 -0.039998 0.149786
v -0.313618 -0.325530 0.197899
v -0.319318 -0.354078 0.055256
v -0.260730 -0.072022 0.057635
v -0.258818 -0.085276 0.229155
v -0.332839 0.261845 0.162200
v -0.428448 0.230138 0.277329
v -0.329586 0.398216 0.456906
v -0.424121 -0.043982 0.008098
v -0.350404 0.150892 0.382358
v -0.206892 0.133978 0.332131
v -0.146914 0.279433 0.479324
v -0.274023 0.294853 0.523772
v -0.196353 0.202365 0.196328
v -0.236835 0.446914 0.370852
v -0.124142 0.373546 0.384766
v -0.461034 -0.551621 0.173609
v -0.436769 -0.539277 0.201361
v -0.439447 -0.563846 0.143397
v -0.399885 -0.543397 0.188200
v -0.402026 -0.558909 0.152315
v -0.159650 0.464624 0.706133
v -0.114670 0.430768 0.690808
v -0.148542 0.430336 0.703189
v -0.132917 0.486180 0.695455
v -0.104891 0.465311 0.685999
v -0.342609 0.520411 0.810041
v -0.305341 0.467838 0.875704
v -0.126510 0.470630 0.747929
v -0.335782 0.338616 0.788543
v -0.373558 0.390599 0.723532
v -0.156320 0.425859 0.653294
v -0.376959 0.481837 0.734571
v -0.143418 0.502275 0.707051
v -0.301940 0.376600 0.864665
v -0.139339 0.394215 0.694146
v -0.158288 0.479929 0.659718
v -0.124444 0.416693 0.742036
v 0.008326 0.476395 0.741965
v 0.035709 0.434168 0.645856
v 0.019978 0.509311 0.700363
v 0.024057 0.401251 0.687458
v 0.033639 0.488183 0.651741
v 0.010392 0.422458 0.736072
v 0.197350 0.489262 0.852734
v 0.258270 0.417649 0.695983
v 0.224114 0.544004 0.784870
v 0.230886 0.363371 0.763263
v 0.254815 0.508825 0.706385
v 0.200722 0.398643 0.841637
vt 0.000000 0.775732
vt 1.001881 0.775732
vt 1.001881 0.615343
vt 0.000000 0.401488
vt 1.001881 0.401488
vt 1.001881 0.209022
vt 0.000000 0.978895
vt 1.001881 0.978895
vt 1.001881 0.968201
vt 0.000000 0.209022
vt 1.001881 0.005859
vt 0.000000 0.615343
vt 0.000000 0.005859
vn -0.929100 -0.283300 -0.237500
vn -0.491700 -0.344400 0.799800
vn -0.532400 -0.398100 0.747100
vn -0.036200 -0.161600 -0.986200
vn -0.967300 0.019000 -0.253000
vn 0.611900 -0.260100 0.747000
vn 0.934100 -0.143200 -0.327000
vn 0.937200 0.178000 -0.300100
vn 0.632200 -0.298000 0.715200
vn -0.067200 0.725900 -0.684500
vn -0.966900 0.184800 -0.175800
vn -0.957600 0.287400 0.021800
vn -0.057400 0.368200 -0.928000
vn -0.540800 -0.579000 0.610200
vn 0.639100 -0.492300 0.590900
vn 0.617900 -0.617100 0.487200
vn -0.536200 -0.680200 0.499800
vn 0.927000 0.320200 -0.195200
vn -0.060500 0.954300 -0.292600
vn 0.920800 0.389700 0.014100
vn -0.740500 -0.661700 0.117200
vn -0.115300 -0.757600 0.642400
vn -0.146600 -0.870800 -0.469200
vn 0.610000 -0.539500 0.580400
vn 0.596100 -0.783000 -0.177600
vn -0.841700 0.521900 0.138400
vn 0.405900 -0.768500 0.494600
vn -0.693400 -0.554800 0.459800
vn 0.167200 0.985600 -0.026700
vn 0.961400 0.180900 0.207200
vn 0.485500 0.827900 0.280800
vn -0.797100 -0.209200 -0.566400
vn -0.653700 -0.577100 0.489500
vn -0.674600 -0.611200 0.414000
vn 0.246800 0.144000 -0.958300
vn -0.858500 0.083800 -0.505900
vn 0.410100 -0.466200 0.783900
vn 0.997100 -0.024400 -0.072100
vn 0.960700 0.273900 0.044300
vn 0.442100 -0.491000 0.750600
vn 0.049200 0.897700 -0.437800
vn -0.896000 0.216300 -0.387900
vn -0.953100 0.258600 -0.157400
vn 0.160100 0.631000 -0.759100
vn -0.626700 -0.743400 0.233700
vn 0.500700 -0.639900 0.582900
vn 0.534600 -0.726000 0.432600
vn -0.583500 -0.803600 0.117100
vn 0.908600 0.377000 0.179700
vn -0.063700 0.997900 -0.012900
vn 0.848500 0.382200 0.366100
vn -0.674500 -0.677400 -0.293600
vn -0.211800 -0.917400 0.336900
vn 0.070400 -0.691200 -0.719200
vn 0.478000 -0.684900 0.549900
vn 0.692600 -0.686900 -0.220000
vn -0.641400 0.765600 0.050500
vn 0.351000 -0.871600 0.342200
vn -0.736500 -0.669900 0.094000
vn 0.083200 0.956500 0.279600
vn 0.871900 0.144000 0.468000
vn -0.889000 0.454100 0.059100
vn -0.984700 -0.166600 0.051900
vn -0.265000 -0.176300 0.948000
vn -0.326100 -0.228500 0.917300
vn -0.357700 -0.255700 -0.898100
vn -0.991400 0.130500 0.009500
vn 0.774800 -0.266600 0.573200
vn 0.744200 -0.333100 -0.579000
vn 0.817300 0.001600 -0.576100
vn 0.780900 -0.308200 0.543400
vn -0.185800 0.648800 -0.737900
vn -0.948200 0.308100 0.077700
vn -0.881100 0.403100 0.247400
vn -0.317200 0.246700 -0.915700
vn -0.395500 -0.420500 0.816600
vn 0.728000 -0.515600 0.451900
vn 0.672000 -0.633100 0.384100
vn -0.425300 -0.550700 0.718200
vn 0.855600 0.154200 -0.494200
vn -0.054100 0.919500 -0.389300
vn 0.915700 0.276500 -0.291500
vn -0.739200 -0.529000 0.416800
vn 0.002100 -0.657700 0.753300
vn -0.376600 -0.877800 -0.296200
vn 0.693300 -0.559200 0.454600
vn 0.409100 -0.880500 -0.239600
vn -0.746900 0.588400 0.309700
vn 0.491800 -0.753700 0.435900
vn -0.550600 -0.479300 0.683400
vn 0.184500 0.965600 -0.183300
vn 0.987400 0.128400 -0.092400
vn 0.198200 0.957300 0.210600
vn 0.558800 0.254800 0.789200
vn 0.262200 0.423700 0.867000
vn 0.096400 -0.932800 -0.347200
vn -0.266700 -0.224600 -0.937200
vn -0.100900 -0.397300 -0.912100
vn -0.216500 0.723800 -0.655200
vn 0.000600 0.995000 0.100300
vn 0.509200 -0.689300 0.515300
vn 0.152900 -0.974100 -0.166400
vn -0.178700 0.588200 -0.788700
vn 0.339900 -0.582800 0.738100
vn -0.258500 0.396500 0.880900
vn 0.097600 -0.389400 -0.915900
vn -0.156800 0.984300 0.081100
vn -0.001000 -0.990900 -0.134700
vn 0.020300 0.594400 -0.803900
vn -0.179700 -0.608300 0.773100
vn -0.449600 0.544900 0.707800
vn 0.143800 -0.552100 -0.821300
vn -0.120500 0.986400 -0.111600
vn -0.183000 -0.983100 0.004100
vn 0.177300 0.433700 -0.883400
vn -0.478900 -0.433000 0.763600
vn 0.930100 -0.008300 0.367300
vn 0.931500 -0.009000 0.363500
vn 0.932300 -0.008900 0.361500
vn 0.932800 -0.009400 0.360300
vn 0.928200 -0.007300 0.371900
vn 0.929000 -0.008200 0.369900
vn -0.892600 -0.086200 0.442600
vn -0.891100 -0.086500 0.445400
vn -0.894000 -0.085800 0.439700
vn -0.894600 -0.086400 0.438500
vn -0.890100 -0.087300 0.447400
vn -0.889700 -0.086900 0.448100
usemtl material_0
s 1
f 1/1/1 2/2/2 3/3/3
f 4/1/4 1/2/1 5/3/5
f 6/1/6 7/2/7 8/3/8
f 2/1/2 6/2/6 9/3/9
f 10/4/10 11/5/11 12/6/12
f 7/1/7 4/2/4 13/3/13
f 14/4/14 15/5/15 16/6/16
f 11/4/11 14/5/14 17/6/17
f 18/4/18 10/5/10 19/6/19
f 15/4/15 18/5/18 20/6/20
f 21/7/21 22/8/22 2/2/2
f 23/7/23 21/9/21 1/2/1
f 24/7/24 25/8/25 7/2/7
f 22/7/22 24/8/24 6/2/6
f 19/10/19 12/6/12 26/11/26
f 25/7/25 23/8/23 4/2/4
f 17/10/17 16/6/16 27/11/27
f 12/10/12 17/6/17 28/11/28
f 20/10/20 19/6/19 29/11/29
f 16/10/16 20/6/20 30/11/30
f 5/12/5 3/3/3 14/5/14
f 13/12/13 5/3/5 11/5/11
f 9/12/9 8/3/8 18/5/18
f 3/12/3 9/3/9 15/5/15
f 25/7/25 24/7/24 22/7/22
f 8/12/8 13/3/13 10/5/10
f 21/7/21 23/7/23 22/7/22
f 22/7/22 23/7/23 25/7/25
f 3/3/3 5/12/5 1/1/1
f 5/3/5 13/12/13 4/1/4
f 8/3/8 9/12/9 6/1/6
f 9/3/9 3/12/3 2/1/2
f 12/6/12 19/10/19 10/4/10
f 13/3/13 8/12/8 7/1/7
f 17/6/17 12/10/12 11/4/11
f 20/6/20 16/10/16 15/4/15
f 16/6/16 17/10/17 14/4/14
f 1/2/1 4/1/4 23/7/23
f 19/6/19 20/10/20 18/4/18
f 6/2/6 2/1/2 22/7/22
f 2/2/2 1/1/1 21/7/21
f 4/2/4 7/1/7 25/7/25
f 7/2/7 6/1/6 24/7/24
f 28/11/28 26/13/26 12/10/12
f 26/11/26 29/13/29 19/10/19
f 30/11/30 27/13/27 16/10/16
f 27/11/27 28/13/28 17/10/17
f 11/5/11 10/4/10 13/12/13
f 29/11/29 30/13/31 20/10/20
f 15/5/15 14/4/14 3/12/3
f 14/5/14 11/4/11 5/12/5
f 10/5/10 18/4/18 8/12/8
f 18/5/18 15/4/15 9/12/9
f 31/1/32 32/2/33 33/3/34
f 34/1/35 31/2/32 35/3/36
f 36/1/37 37/2/38 38/3/39
f 32/1/33 36/2/37 39/3/40
f 40/4/41 41/5/42 42/6/43
f 37/1/38 34/2/35 43/3/44
f 44/4/45 45/5/46 46/6/47
f 41/4/42 44/5/45 47/6/48
f 48/4/49 40/5/41 49/6/50
f 45/4/46 48/5/49 50/6/51
f 51/7/52 52/8/53 32/2/33
f 53/7/54 51/9/52 31/2/32
f 54/7/55 55/8/56 37/2/38
f 52/7/53 54/8/55 36/2/37
f 49/10/50 42/6/43 30/11/57
f 55/7/56 53/8/54 34/2/35
f 47/10/48 46/6/47 56/11/58
f 42/10/43 47/6/48 57/11/59
f 50/10/51 49/6/50 58/11/60
f 46/10/47 50/6/51 59/11/61
f 35/12/36 33/3/34 44/5/45
f 43/12/44 35/3/36 41/5/42
f 39/12/40 38/3/39 48/5/49
f 33/12/34 39/3/40 45/5/46
f 55/7/56 54/7/55 52/7/53
f 38/12/39 43/3/44 40/5/41
f 51/7/52 53/7/54 52/7/53
f 52/7/53 53/7/54 55/7/56
f 33/3/34 35/12/36 31/1/32
f 35/3/36 43/12/44 34/1/35
f 38/3/39 39/12/40 36/1/37
f 39/3/40 33/12/34 32/1/33
f 42/6/43 49/10/50 40/4/41
f 43/3/44 38/12/39 37/1/38
f 47/6/48 42/10/43 41/4/42
f 50/6/51 46/10/47 45/4/46
f 46/6/47 47/10/48 44/4/45
f 31/2/32 34/1/35 53/7/54
f 49/6/50 50/10/51 48/4/49
f 36/2/37 32/1/33 52/7/53
f 32/2/33 31/1/32 51/7/52
f 34/2/35 37/1/38 55/7/56
f 37/2/38 36/1/37 54/7/55
f 57/11/59 30/13/62 42/10/43
f 30/11/57 58/13/60 49/10/50
f 59/11/61 56/13/58 46/10/47
f 56/11/58 57/13/59 47/10/48
f 41/5/42 40/4/41 43/12/44
f 58/11/60 59/13/61 50/10/51
f 45/5/46 44/4/45 33/12/34
f 44/5/45 41/4/42 35/12/36
f 40/5/41 48/4/49 38/12/39
f 48/5/49 45/4/46 39/12/40
f 60/1/63 61/2/64 62/3/65
f 63/1/66 60/2/63 64/3/67
f 65/1/68 66/2/69 67/3/70
f 61/1/64 65/2/68 68/3/71
f 69/4/72 70/5/73 71/6/74
f 66/1/69 63/2/66 72/3/75
f 73/4/76 74/5/77 75/6/78
f 70/4/73 73/5/76 76/6/79
f 77/4/80 69/5/72 78/6/81
f 74/4/77 77/5/80 79/6/82
f 80/7/83 81/8/84 61/2/64
f 82/7/85 80/9/83 60/2/63
f 83/7/86 84/8/87 66/2/69
f 81/7/84 83/8/86 65/2/68
f 78/10/81 71/6/74 85/11/88
f 84/7/87 82/8/85 63/2/66
f 76/10/79 75/6/78 86/11/89
f 71/10/74 76/6/79 87/11/90
f 79/10/82 78/6/81 88/11/91
f 75/10/78 79/6/82 89/11/92
f 64/12/67 62/3/65 73/5/76
f 72/12/75 64/3/67 70/5/73
f 68/12/71 67/3/70 77/5/80
f 62/12/65 68/3/71 74/5/77
f 84/7/87 83/7/86 81/7/84
f 67/12/70 72/3/75 69/5/72
f 80/7/83 82/7/85 81/7/84
f 81/7/84 82/7/85 84/7/87
f 62/3/65 64/12/67 60/1/63
f 64/3/67 72/12/75 63/1/66
f 67/3/70 68/12/71 65/1/68
f 68/3/71 62/12/65 61/1/64
f 71/6/74 78/10/81 69/4/72
f 72/3/75 67/12/70 66/1/69
f 76/6/79 71/10/74 70/4/73
f 79/6/82 75/10/78 74/4/77
f 75/6/78 76/10/79 73/4/76
f 60/2/63 63/1/66 82/7/85
f 78/6/81 79/10/82 77/4/80
f 65/2/68 61/1/64 81/7/84
f 61/2/64 60/1/63 80/7/83
f 63/2/66 66/1/69 84/7/87
f 66/2/69 65/1/68 83/7/86
f 87/11/90 85/13/88 71/10/74
f 85/11/88 88/13/91 78/10/81
f 89/11/92 86/13/89 75/10/78
f 86/11/89 87/13/90 76/10/79
f 70/5/73 69/4/72 72/12/75
f 88/11/91 89/13/92 79/10/82
f 74/5/77 73/4/76 62/12/65
f 73/5/76 70/4/73 64/12/67
f 69/5/72 77/4/80 67/12/70
f 77/5/80 74/4/77 68/12/71
f 90/7/93 91/7/94 92/13/95
f 93/7/96 94/7/97 95/13/98
f 96/7/99 90/7/93 97/13/100
f 98/7/101 93/7/96 99/13/102
f 94/7/97 96/7/99 100/13/103
f 91/7/94 98/7/101 101/13/104
f 97/13/100 92/13/95 102/13/105
f 99/13/102 95/13/98 103/13/106
f 100/13/103 97/13/100 104/13/107
f 101/13/104 99/13/102 105/13/108
f 95/13/98 100/13/103 106/13/109
f 92/13/95 101/13/104 107/13/110
f 104/13/107 102/13/105 108/7/111
f 105/13/108 103/13/106 109/7/112
f 106/13/109 104/13/107 110/7/113
f 107/13/110 105/13/108 111/7/114
f 103/13/106 106/13/109 112/7/115
f 102/13/105 107/13/110 113/7/116
f 92/13/95 97/13/100 90/7/93
f 95/13/98 99/13/102 93/7/96
f 97/13/100 100/13/103 96/7/99
f 99/13/102 101/13/104 98/7/101
f 100/13/103 95/13/98 94/7/97
f 101/13/104 92/13/95 91/7/94
f 102/13/105 104/13/107 97/13/100
f 103/13/106 105/13/108 99/13/102
f 104/13/107 106/13/109 100/13/103
f 105/13/108 107/13/110 101/13/104
f 106/13/109 103/13/106 95/13/98
f 107/13/110 102/13/105 92/13/95
f 108/7/111 110/7/113 104/13/107
f 109/7/112 111/7/114 105/13/108
f 110/7/113 112/7/115 106/13/109
f 111/7/114 113/7/116 107/13/110
f 112/7/115 109/7/112 103/13/106
f 113/7/116 108/7/111 102/13/105
f 111/7/117 110/7/118 113/7/119
f 110/7/118 108/7/120 113/7/119
f 111/7/117 109/7/121 112/7/122
f 112/7/122 110/7/118 111/7/117
f 90/7/123 93/7/124 98/7/125
f 98/7/125 91/7/126 90/7/123
f 94/7/127 93/7/124 96/7/128
f 96/7/128 93/7/124 90/7/123
