# Blender v2.76 (sub 0) OBJ File: ''
# www.blender.org
mtllib laser.mtl
o polygon0
v 0.002226 -0.501944 0.154075
v -0.031450 0.406429 -0.156494
v -0.051364 -0.497098 -0.166815
v 0.022140 0.401583 0.164395
v -0.150102 -0.497936 0.097097
v 0.120878 0.402421 -0.099516
v 0.100964 -0.501106 -0.109836
v -0.130188 0.405591 0.107417
v -0.176897 -0.495512 -0.063348
v 0.147673 0.399997 0.060929
v 0.127759 -0.503529 0.050609
v -0.156983 0.408014 -0.053028
vt 1.000000 0.000000
vt 0.000000 1.000000
vt 0.000000 0.000000
vt 1.000000 1.000000
vn -0.986100 0.019900 0.165000
vn -0.635700 0.022800 -0.771600
vn 0.350400 0.003000 -0.936600
usemtl mat2
s 1
f 1/1/1 2/2/1 3/3/1
f 1/1/1 4/4/1 2/2/1
f 5/1/2 6/2/2 7/3/2
f 5/1/2 8/4/2 6/2/2
f 9/1/3 10/2/3 11/3/3
f 9/1/3 12/4/3 10/2/3
