# Blender v2.76 (sub 0) OBJ File: ''
# www.blender.org
mtllib Missile.mtl
o Object01
v -0.207497 0.292655 0.017664
v -0.219822 0.293905 -0.030393
v -0.271389 0.194172 0.005843
v -0.262591 0.294434 -0.055701
v -0.310732 0.293930 -0.043368
v -0.336010 0.292691 -0.000678
v -0.269653 -0.242673 -0.005892
v -0.208247 -0.135985 -0.049389
v -0.193567 -0.137474 0.007854
v -0.259118 -0.135356 -0.079491
v -0.316379 -0.135955 -0.064822
v -0.346488 -0.137431 -0.013972
v -0.347508 0.148854 -0.006264
v -0.336897 0.186896 -0.003706
v -0.317399 0.150330 -0.057114
v -0.311111 0.188160 -0.047255
v -0.260138 0.150929 -0.071784
v -0.262010 0.188674 -0.059835
v -0.209267 0.150300 -0.041681
v -0.218388 0.188134 -0.034022
v -0.211883 0.225154 -0.037930
v -0.260859 0.225760 -0.066911
v -0.315987 0.225183 -0.052788
v -0.344965 0.223762 -0.003847
v -0.197754 0.223721 0.017164
v -0.205815 0.186859 0.015002
v -0.194587 0.148811 0.015561
v -0.223676 -0.138950 0.058703
v -0.280937 -0.139549 0.073373
v -0.331808 -0.138920 0.043270
v -0.232774 0.291416 0.060355
v -0.280916 0.290912 0.072688
v -0.323685 0.291441 0.047380
v -0.330836 0.222329 0.051247
v -0.281860 0.221723 0.080229
v -0.226732 0.222300 0.066105
v -0.231601 0.185595 0.058551
v -0.224696 0.147335 0.066411
v -0.281957 0.146736 0.081081
v -0.332828 0.147365 0.050978
v -0.324324 0.185621 0.045317
v -0.280703 0.185081 0.071130
vt 0.630000 0.991600
vt 0.664900 0.909400
vt 0.749100 0.991600
vt 0.749200 0.874500
vt 0.833600 0.909400
vt 0.868500 0.991600
vt 0.300500 0.692800
vt 0.109900 0.883400
vt 0.031000 0.692800
vt 0.300500 0.962300
vt 0.491000 0.883400
vt 0.569900 0.692800
vt 0.309100 0.656500
vt 0.261100 0.656300
vt 0.309100 0.509500
vt 0.261100 0.509500
vt 0.309100 0.341100
vt 0.261100 0.341100
vt 0.309100 0.172700
vt 0.261100 0.172700
vt 0.168600 0.172700
vt 0.168600 0.341100
vt 0.168600 0.509500
vt 0.168600 0.656400
vt 0.004100 0.509500
vt 0.004100 0.656200
vt 0.004100 0.341100
vt 0.004100 0.172700
vt 0.004100 0.007000
vt 0.168600 0.006800
vt 0.261100 0.006900
vt 0.309100 0.006700
vt 0.995900 0.006700
vt 0.995900 0.172700
vt 0.995900 0.341100
vt 0.995900 0.509500
vt 0.995900 0.656500
vt 0.031000 -0.307200
vt 0.109900 -0.116600
vt 0.300500 -0.307200
vt 0.300500 -0.037700
vt 0.491000 -0.116600
vt 0.569900 -0.307200
vt 0.749200 -0.008200
vt 0.664900 -0.090600
vt 0.630000 -0.008200
vt 0.749200 -0.125500
vt 0.833600 -0.090600
vt 0.868500 -0.008200
vt 0.004100 -0.343800
vt 0.168600 -0.343600
vt 0.004100 -0.490500
vt 0.168600 -0.490500
vt 0.168600 -0.658900
vt 0.004100 -0.658900
vt 0.168600 -0.827300
vt 0.004100 -0.827300
vt 0.004100 -0.993800
vt 0.168600 -0.994000
vt 0.261100 -0.827300
vt 0.261100 -0.993800
vt 0.309100 -0.994100
vt 0.309100 -0.827300
vt 0.995900 -0.994100
vt 0.995900 -0.827300
vt 0.309100 -0.658900
vt 0.995900 -0.658900
vt 0.309100 -0.490500
vt 0.995900 -0.490500
vt 0.309100 -0.343500
vt 0.995900 -0.343500
vt 0.261100 -0.343700
vt 0.261100 -0.490500
vt 0.261100 -0.658900
vn -0.829400 0.510900 0.226000
vn -0.437000 0.498100 0.748900
vn 0.210300 0.498000 0.841300
vn 0.733200 0.510700 0.449000
vn 0.803800 -0.552500 -0.220500
vn 0.423600 -0.540200 -0.727100
vn -0.203600 -0.540100 -0.816600
vn -0.710300 -0.552100 -0.436600
vn -0.833100 0.265000 -0.485600
vn -0.240900 0.282100 -0.928700
vn 0.490800 0.285000 -0.823400
vn 0.490700 0.285000 -0.823400
vn 0.499600 -0.177300 -0.847900
vn -0.242700 -0.174600 -0.954300
vn -0.843000 -0.186400 -0.504600
vn -0.854400 0.134100 -0.502000
vn -0.246800 0.150000 -0.957400
vn -0.246800 0.150100 -0.957400
vn 0.504800 0.151500 -0.849900
vn 0.504800 0.151400 -0.849900
vn 0.960300 0.137500 -0.242700
vn 0.949200 -0.193000 -0.248500
vn 0.933800 0.272100 -0.232400
vn 0.968700 0.010100 -0.248200
vn 0.509300 0.025000 -0.860200
vn -0.248300 0.025200 -0.968300
vn -0.860600 0.010600 -0.509200
vn 0.714300 -0.569700 0.406400
vn 0.207600 -0.581800 0.786400
vn -0.419600 -0.581600 0.696900
vn -0.799800 -0.569300 0.190300
vn -0.737000 0.528700 -0.421100
vn -0.214000 0.540900 -0.813400
vn 0.433300 0.540800 -0.720900
vn 0.825600 0.528400 -0.198000
vn -0.961700 0.113500 0.249600
vn -0.505800 0.100300 0.856800
vn 0.245900 0.101700 0.963900
vn 0.853100 0.116900 0.508500
vn 0.843400 -0.213400 0.493200
vn 0.829500 0.252100 0.498400
vn 0.860600 -0.010600 0.509200
vn 0.248300 -0.025200 0.968300
vn -0.509300 -0.025000 0.860200
vn -0.968700 -0.010100 0.248200
vn -0.937600 0.244900 0.246800
vn -0.493000 0.233600 0.838100
vn 0.238800 0.236600 0.941800
vn 0.244000 -0.226400 0.943000
vn 0.243900 -0.226400 0.943000
vn -0.498400 -0.223700 0.837600
vn -0.949000 -0.206800 0.238000
usemtl _1___Default
s 1
f 1/1/1 2/2/1 3/3/1
f 4/4/2 3/3/2 2/2/2
f 5/5/3 3/3/3 4/4/3
f 3/3/4 5/5/4 6/6/4
f 7/7/5 8/8/5 9/9/5
f 8/8/6 7/7/6 10/10/6
f 10/10/7 7/7/7 11/11/7
f 12/12/8 11/11/8 7/7/8
f 13/13/9 14/14/9 15/15/9
f 16/16/9 15/15/9 14/14/9
f 15/15/10 16/16/10 17/17/10
f 18/18/10 17/17/10 16/16/10
f 17/17/11 18/18/11 19/19/11
f 19/19/11 18/18/11 20/20/12
f 20/20/13 18/18/13 21/21/13
f 21/21/13 18/18/13 22/22/13
f 16/16/14 22/22/14 18/18/14
f 22/22/14 16/16/14 23/23/14
f 14/14/15 23/23/15 16/16/15
f 23/23/15 14/14/15 24/24/15
f 5/25/16 24/24/16 6/26/16
f 24/24/16 5/25/16 23/23/16
f 23/23/17 5/25/17 22/22/17
f 4/27/18 22/22/17 5/25/17
f 22/22/19 4/27/19 21/21/19
f 2/28/20 21/21/19 4/27/19
f 1/29/21 21/21/21 2/28/21
f 25/30/21 21/21/21 1/29/21
f 21/21/22 25/30/22 20/20/22
f 26/31/22 20/20/22 25/30/22
f 27/32/23 20/20/23 26/31/23
f 20/20/23 27/32/23 19/19/23
f 9/33/24 19/19/24 27/32/24
f 8/34/24 19/19/24 9/33/24
f 19/19/25 8/34/25 17/17/25
f 10/35/25 17/17/25 8/34/25
f 17/17/26 10/35/26 15/15/26
f 11/36/26 15/15/26 10/35/26
f 15/15/27 11/36/27 13/13/27
f 12/37/27 13/13/27 11/36/27
f 9/38/28 28/39/28 7/40/28
f 29/41/29 7/40/29 28/39/29
f 30/42/30 7/40/30 29/41/30
f 7/40/31 30/42/31 12/43/31
f 3/44/32 31/45/32 1/46/32
f 31/45/33 3/44/33 32/47/33
f 32/47/34 3/44/34 33/48/34
f 6/49/35 33/48/35 3/44/35
f 6/50/36 24/51/36 33/52/36
f 34/53/36 33/52/36 24/51/36
f 35/54/37 33/52/37 34/53/37
f 33/52/37 35/54/37 32/55/37
f 36/56/38 32/55/38 35/54/38
f 32/55/38 36/56/38 31/57/38
f 31/57/39 36/56/39 1/58/39
f 1/58/39 36/56/39 25/59/39
f 37/60/40 25/59/40 36/56/40
f 25/59/40 37/60/40 26/61/40
f 26/61/41 37/60/41 27/62/41
f 38/63/41 27/62/41 37/60/41
f 27/62/42 38/63/42 9/64/42
f 9/64/42 38/63/42 28/65/42
f 39/66/43 28/65/43 38/63/43
f 28/65/43 39/66/43 29/67/43
f 40/68/44 29/67/44 39/66/44
f 29/67/44 40/68/44 30/69/44
f 13/70/45 30/69/45 40/68/45
f 30/69/45 13/70/45 12/71/45
f 13/70/46 40/68/46 14/72/46
f 14/72/46 40/68/46 41/73/46
f 39/66/47 41/73/47 40/68/47
f 41/73/47 39/66/47 42/74/47
f 38/63/48 42/74/48 39/66/48
f 37/60/48 42/74/48 38/63/48
f 36/56/49 42/74/49 37/60/50
f 35/54/49 42/74/49 36/56/49
f 42/74/51 35/54/51 41/73/51
f 34/53/51 41/73/51 35/54/51
f 41/73/52 34/53/52 14/72/52
f 24/51/52 14/72/52 34/53/52
